<svg width="32" height="32" viewBox="0 0 32 32" fill="none" xmlns="http://www.w3.org/2000/svg">
<path d="M27.5021 6.9216C26.0364 6.9216 25.7279 7.63616 26.705 8.82707C30.3564 13.2996 27.0136 24.1237 20.9966 27.273C16.111 29.8136 11.0198 28.6757 7.4713 25.7381C1.96862 21.1597 0.605777 13.5643 7.57413 6.44524C11.9197 1.99916 16.8053 1.46986 21.1252 4.53977C23.208 5.99534 24.185 6.10119 25.9593 5.0426C28.582 3.45472 24.8536 1.33753 20.1737 0.411267C4.87421 -2.63218 -5.87397 11.7382 3.51145 26.2674C8.31987 33.704 23.6194 33.9686 28.2221 26.6908C33.5705 18.2485 33.159 6.9216 27.5021 6.9216Z" fill="black"/>
</svg>
