<svg width="15" height="24" viewBox="0 0 15 24" fill="none" xmlns="http://www.w3.org/2000/svg">
<path d="M5.28152 16.975C1.11594 15.7577 0.13883 17.8484 4.12442 19.3304C6.07864 20.045 6.3872 19.8597 6.5672 21.2359C6.92719 24.2529 9.93569 23.5383 9.93569 20.4155C9.93569 19.7538 10.2185 19.4363 11.1699 19.1187C15.104 17.769 15.3098 12.2643 11.4785 10.8088C10.4242 10.4118 8.80432 10.3853 7.39008 10.2001C2.99307 9.56491 5.28152 5.8863 7.7243 6.04509C8.08429 6.07155 10.5784 6.30974 11.1441 6.38914C12.9698 6.46853 13.3041 5.9657 13.407 5.40994C13.5613 4.64246 11.607 3.66326 9.90995 3.66326C8.95855 3.66326 8.82993 3.53094 8.82993 2.63114C8.82993 0.963854 7.31286 0.0375868 6.41289 1.17557C6.20718 1.44022 6.0015 2.02245 5.92436 2.49881C5.82151 3.16043 5.41012 3.50447 4.02159 3.98084C-0.478269 5.5158 -1.27544 11.2587 6.41289 12.4496C8.49568 12.7671 10.9642 13.4817 10.8099 14.9108C10.5785 17.1603 6.49006 17.3191 5.28152 16.975Z" fill="black"/>
</svg>
